<?xml version="1.0" standalone="no"?>
<!DOCTYPE svg PUBLIC "-//W3C//DTD SVG 20010904//EN"
 "http://www.w3.org/TR/2001/REC-SVG-20010904/DTD/svg10.dtd">
<svg version="1.0" xmlns="http://www.w3.org/2000/svg"
 width="300.000000pt" height="169.000000pt" viewBox="0 0 300.000000 169.000000"
 preserveAspectRatio="xMidYMid meet">
<metadata>
Created by potrace 1.10, written by Peter Selinger 2001-2011
</metadata>
<g transform="translate(0.000000,169.000000) scale(0.100000,-0.100000)"
fill="#000000" stroke="none">
<path d="M497 1658 c-9 -18 -14 -34 -12 -37 4 -3 98 -4 303 -1 12 0 22 4 22
10 0 9 -83 13 -215 10 -34 -1 -47 2 -40 9 6 6 62 12 125 14 l115 3 -127 2
c-77 1 -128 6 -128 12 0 23 -29 8 -43 -22z"/>
<path d="M927 1672 c-10 -11 -15 -26 -11 -36 5 -14 26 -16 159 -16 98 0 156 4
160 11 5 7 -30 10 -112 9 -150 -2 -153 -2 -153 10 0 5 54 11 128 13 l127 3
-137 2 c-87 1 -138 6 -140 13 -2 6 -11 2 -21 -9z m29 -13 c3 -6 1 -16 -5 -22
-9 -9 -14 -8 -21 3 -9 15 -4 30 10 30 5 0 12 -5 16 -11z"/>
<path d="M1317 1670 c-3 -11 -16 -24 -29 -29 -20 -8 -21 -10 -5 -16 27 -11 47
2 47 30 l0 25 200 0 200 0 0 -30 c0 -34 21 -43 85 -36 22 3 88 5 148 5 63 1
107 5 107 11 0 6 -45 9 -112 9 -156 0 -158 0 -158 11 0 5 53 9 126 9 69 0 128
2 131 5 3 3 -47 5 -112 5 -71 0 -122 4 -128 10 -7 7 -93 11 -253 11 -233 0
-242 -1 -247 -20z m473 -14 c0 -21 -21 -31 -30 -15 -5 7 -6 17 -4 21 9 14 34
9 34 -6z"/>
<path d="M1 1642 l-1 -34 183 3 c189 3 237 6 237 19 0 4 -12 7 -27 8 -157 1
-193 3 -193 11 0 5 43 10 97 10 53 1 99 3 101 6 3 3 -64 4 -149 4 -85 -1 -146
-3 -136 -6 23 -6 22 -23 -3 -23 -11 0 -20 7 -20 15 0 24 -18 17 -22 -7 -5 -34
-50 -32 -59 2 -6 23 -7 22 -8 -8z"/>
<path d="M2168 1664 c-3 -3 -4 -14 -1 -25 5 -18 15 -19 159 -19 91 0 155 4
159 10 4 6 -42 10 -129 10 -83 0 -136 4 -136 10 0 6 48 10 121 9 67 0 124 2
127 5 3 3 -62 6 -145 6 -82 0 -152 -3 -155 -6z"/>
<path d="M460 1649 c0 -6 -7 -9 -15 -5 -9 3 -15 0 -15 -9 0 -8 9 -15 20 -15
13 0 20 7 20 20 0 11 -2 20 -5 20 -3 0 -5 -5 -5 -11z"/>
<path d="M1377 1653 c-19 -19 4 -23 126 -21 l132 2 -120 3 c-65 2 -122 8 -125
13 -4 6 -9 7 -13 3z"/>
<path d="M2847 1634 c-18 -18 -2 -24 64 -24 52 0 70 3 66 13 -2 6 -15 11 -28
9 -36 -4 -42 -3 -69 3 -14 4 -29 3 -33 -1z"/>
<path d="M2680 1620 c-10 -7 8 -10 59 -10 41 0 72 3 68 6 -11 11 -111 14 -127
4z"/>
<path d="M240 1585 c-8 -10 -8 -19 0 -34 10 -20 19 -21 173 -21 89 0 167 4
174 8 9 6 9 13 0 32 -13 25 -13 25 -174 27 -125 1 -165 -2 -173 -12z m48 -18
c2 -12 -3 -17 -17 -17 -12 0 -21 6 -21 13 0 31 32 34 38 4z m292 -5 c0 -16
-271 -13 -277 3 -2 7 44 11 137 10 107 0 140 -3 140 -13z"/>
<path d="M1433 1593 c54 -2 139 -2 190 0 51 1 7 3 -98 3 -104 0 -146 -2 -92
-3z"/>
<path d="M2518 1574 c-16 -34 1 -43 67 -40 57 3 75 10 75 31 0 21 -16 27 -76
31 -50 3 -56 1 -66 -22z m52 -10 c0 -9 -7 -14 -17 -12 -25 5 -28 28 -4 28 12
0 21 -6 21 -16z"/>
<path d="M2682 1588 c-17 -17 -15 -32 8 -53 16 -15 24 -16 43 -7 12 6 33 12
47 14 15 2 25 10 26 21 1 12 1 13 -3 2 -2 -8 -13 -15 -24 -15 -11 0 -18 4 -14
9 7 12 -33 41 -55 41 -9 0 -21 -5 -28 -12z m48 -24 c0 -8 -9 -14 -20 -14 -19
0 -27 19 -14 33 10 9 34 -4 34 -19z"/>
<path d="M2893 1589 c20 -12 22 -35 3 -42 -18 -7 -36 12 -29 32 5 13 4 14 -8
3 -11 -10 -11 -16 -1 -33 17 -27 13 -31 -42 -31 -36 0 -49 -4 -61 -21 -8 -12
-15 -17 -15 -12 0 9 -2102 11 -2118 1 -6 -3 -42 -2 -80 2 -7 1 -10 7 -7 12 3
5 -1 10 -9 10 -10 0 -13 -6 -10 -15 5 -12 -1 -15 -30 -13 -20 2 -38 9 -41 16
-2 6 -12 12 -22 11 -16 0 -16 -1 2 -9 18 -8 18 -9 2 -9 -10 -1 -31 6 -47 14
-19 10 -31 11 -35 5 -4 -6 -3 -10 2 -9 19 3 33 -2 33 -12 0 -15 -80 -5 -91 12
-7 11 -9 10 -9 -3 0 -10 -7 -18 -15 -18 -7 0 -19 8 -25 18 -9 15 -11 15 -19 1
-11 -17 -110 -21 -101 -4 3 6 22 9 42 8 20 -2 39 1 42 5 10 16 -91 14 -107 -2
-13 -14 -16 -14 -28 0 -7 8 -24 14 -38 12 -21 -2 -27 -9 -29 -36 l-3 -32 1485
2 1486 3 0 -682 0 -683 -1485 0 -1485 0 0 -27 c0 -14 3 -23 6 -20 4 3 15 -5
26 -18 18 -23 26 -25 102 -25 79 0 106 9 106 35 0 5 -5 3 -9 -5 -7 -11 -24
-14 -70 -12 -34 2 -61 7 -61 12 0 14 161 21 554 22 l388 2 19 -26 19 -26 246
-1 c164 -1 250 2 259 9 9 8 15 8 20 0 8 -13 48 -13 62 1 8 8 13 8 17 0 9 -15
59 -14 74 1 8 8 15 8 27 -2 10 -8 15 -9 15 -1 0 18 -4 26 -12 23 -5 -1 -8 5
-8 13 0 8 4 15 9 15 5 0 16 3 25 6 12 5 16 0 16 -18 0 -13 -5 -29 -12 -36 -9
-9 -8 -12 4 -12 9 0 20 5 23 10 3 6 16 10 28 11 12 0 16 3 10 6 -20 7 -15 31
7 43 31 16 44 3 25 -26 -8 -13 -12 -25 -8 -25 5 -1 -8 -5 -27 -9 l-35 -7 43
-2 c36 -1 44 3 54 24 l11 25 258 0 c161 0 260 -4 264 -10 3 -5 12 -10 18 -10
8 0 8 3 -2 9 -8 5 -9 11 -3 15 6 4 15 -1 20 -11 7 -11 23 -17 50 -18 22 0 47
-7 56 -14 14 -12 19 -11 34 2 14 13 29 14 87 7 49 -6 74 -5 83 3 11 9 17 7 27
-6 14 -19 109 -25 120 -7 4 6 -17 10 -54 10 -38 0 -61 4 -61 11 0 8 21 10 63
7 60 -3 64 -2 75 21 18 37 17 1405 0 1418 -7 5 -39 9 -70 8 -38 -2 -58 2 -58
9 0 7 20 10 55 10 30 -1 52 2 49 7 -3 5 -19 9 -36 9 -30 0 -31 0 -13 20 17 19
17 21 0 40 -10 11 -23 20 -29 20 -6 0 -3 -5 7 -11z m-2833 -94 c0 -8 -9 -15
-20 -15 -11 0 -20 7 -20 15 0 8 9 15 20 15 11 0 20 -7 20 -15z m2750 0 c0 -8
-9 -15 -20 -15 -11 0 -20 7 -20 15 0 8 9 15 20 15 11 0 20 -7 20 -15z m177
-943 c-1 -130 -2 -23 -2 238 0 261 1 368 2 237 2 -130 2 -344 0 -475z m-2899
-497 c-2 -17 -8 -25 -20 -25 -24 0 -35 29 -17 41 25 16 39 10 37 -16z m1042
-10 c0 -20 -5 -25 -25 -25 -20 0 -25 5 -25 25 0 20 5 25 25 25 20 0 25 -5 25
-25z m412 5 c-3 -11 0 -11 13 0 19 16 38 2 25 -20 -7 -11 -46 -14 -197 -17
-103 -1 -196 0 -205 3 -28 8 -22 39 7 42 16 1 25 -3 25 -13 0 -8 5 -15 10 -15
6 0 10 6 10 13 0 13 58 15 78 3 7 -4 12 -2 12 3 0 14 142 15 156 1 7 -7 17 -5
30 5 22 16 40 14 36 -5z m118 1 c0 -12 -9 -20 -25 -23 -19 -4 -25 -1 -25 12 0
22 9 30 32 30 11 0 18 -7 18 -19z m90 -11 c0 -14 -7 -18 -25 -16 -31 3 -39 11
-32 29 8 21 57 9 57 -13z m1170 22 c0 -5 -16 -9 -35 -10 -19 -1 -35 3 -35 8 0
6 16 10 35 10 19 0 35 -4 35 -8z"/>
<path d="M1042 1263 c3 -32 7 -38 29 -41 31 -4 52 18 47 50 -2 19 -10 24 -41
26 l-38 3 3 -38z"/>
<path d="M1143 1265 c3 -40 31 -41 35 -1 2 17 0 26 -7 22 -5 -4 -8 -13 -4 -21
3 -8 0 -15 -5 -15 -6 0 -13 10 -15 23 -4 15 -5 12 -4 -8z"/>
<path d="M1342 1274 c-16 -18 -9 -44 13 -44 10 0 15 10 15 30 0 33 -8 37 -28
14z"/>
<path d="M1394 1273 c3 -8 6 -21 6 -29 0 -24 20 -16 21 9 0 21 1 21 8 2 11
-28 97 -31 104 -3 5 16 -1 18 -45 17 -27 -1 -53 2 -56 7 -12 16 -44 14 -38 -3z"/>
<path d="M1560 1260 c0 -30 21 -42 35 -20 5 8 11 7 21 -1 11 -9 17 -9 29 1 10
9 15 9 15 1 0 -6 4 -11 10 -11 5 0 7 7 4 15 -4 8 -2 15 4 15 5 0 12 -7 16 -15
7 -18 44 -14 57 6 7 11 9 10 10 -6 0 -20 0 -20 8 0 8 20 8 20 13 0 5 -18 6
-18 7 3 1 19 -4 22 -39 22 -25 0 -40 -5 -40 -12 0 -10 -2 -10 -8 -1 -4 6 -25
11 -46 11 -26 0 -34 -3 -25 -9 8 -5 9 -9 4 -9 -6 0 -18 9 -28 20 -25 30 -47
26 -47 -10z"/>
<path d="M1880 1259 c0 -10 5 -21 12 -25 8 -5 9 -1 5 12 -7 18 -6 18 7 2 17
-23 26 -23 26 1 0 12 -9 20 -25 23 -19 4 -25 1 -25 -13z"/>
<path d="M1188 1245 c-6 -27 1 -32 20 -13 16 16 15 38 -2 38 -7 0 -16 -11 -18
-25z"/>
<path d="M1252 1253 c2 -12 14 -18 36 -20 26 -2 32 1 32 17 0 12 -7 20 -16 20
-14 0 -15 -2 -3 -17 13 -17 13 -17 -7 0 -26 22 -46 22 -42 0z"/>
<path d="M860 1165 c0 -12 13 -15 55 -15 37 0 55 4 55 13 0 7 -14 12 -35 12
-19 0 -35 -4 -35 -9 0 -6 -5 -5 -12 2 -16 16 -28 15 -28 -3z"/>
<path d="M1123 1173 c-83 -5 -81 -19 2 -21 51 -1 65 2 65 13 0 8 -1 14 -2 13
-2 -1 -31 -3 -65 -5z"/>
<path d="M1318 1173 c-67 -7 -40 -22 37 -21 41 0 75 5 75 9 0 5 -11 9 -24 9
-13 0 -30 1 -38 3 -7 2 -30 2 -50 0z"/>
<path d="M1440 1163 c0 -8 11 -11 30 -9 16 2 48 0 70 -4 23 -4 43 -3 46 2 10
17 -4 21 -76 22 -50 1 -70 -2 -70 -11z"/>
<path d="M1623 1172 c-41 -6 -24 -22 23 -22 25 0 43 4 40 9 -7 11 -36 17 -63
13z"/>
<path d="M1700 1165 c0 -10 10 -15 30 -15 35 0 40 15 8 24 -34 9 -38 8 -38 -9z"/>
<path d="M1828 1173 c-27 -7 -22 -23 7 -23 16 0 25 6 25 15 0 15 -2 16 -32 8z"/>
<path d="M1870 1163 c0 -8 13 -13 35 -13 19 0 35 5 35 10 0 6 -3 10 -7 11 -48
5 -63 3 -63 -8z"/>
<path d="M1963 1173 c-7 -3 -13 -12 -12 -21 0 -9 3 -12 5 -6 3 6 16 9 29 6 14
-2 25 0 25 6 0 11 -29 21 -47 15z"/>
<path d="M2020 1164 c0 -6 20 -12 45 -12 31 -2 45 2 45 10 0 9 -15 13 -45 13
-26 0 -45 -5 -45 -11z"/>
<path d="M980 1157 c0 -9 11 -12 35 -9 19 2 35 8 35 13 0 5 -16 9 -35 9 -22 0
-35 -5 -35 -13z"/>
<path d="M1203 1157 c0 -9 10 -12 29 -9 41 6 45 22 5 22 -21 0 -34 -5 -34 -13z"/>
<path d="M1360 1104 c0 -8 4 -13 8 -10 5 3 29 6 55 7 66 4 59 19 -8 19 -43 0
-55 -3 -55 -16z"/>
<path d="M1480 1110 c0 -7 26 -10 65 -9 35 1 62 6 59 10 -8 13 -124 11 -124
-1z"/>
<path d="M834 916 c-3 -8 -4 -27 -1 -43 3 -23 4 -22 6 10 l1 37 303 -2 302 -3
0 -295 0 -295 -302 -3 -302 -2 -4 22 c-3 20 -4 20 -3 -2 l1 -25 307 -3 308 -2
5 22 c3 13 4 151 3 308 l-3 285 -308 3 c-259 2 -308 0 -313 -12z"/>
<path d="M1522 918 c-9 -9 -12 -88 -12 -294 0 -155 3 -289 6 -298 5 -14 42
-16 314 -16 272 0 309 2 314 16 3 9 5 86 4 172 l-2 157 -3 -145 c-2 -80 -5
-155 -8 -168 l-5 -22 -303 2 -302 3 0 295 0 295 307 0 c168 0 304 3 301 8 -8
13 -597 9 -611 -5z"/>
<path d="M1122 808 c-18 -18 -14 -32 5 -17 15 13 16 11 9 -13 -4 -17 -2 -28 4
-28 5 0 10 9 10 21 0 11 5 17 10 14 6 -3 10 -2 10 2 0 10 -21 33 -30 33 -3 0
-11 -5 -18 -12z"/>
<path d="M1812 808 c-15 -15 -16 -32 -2 -23 6 3 10 -3 10 -14 0 -12 5 -21 10
-21 6 0 10 9 10 21 0 11 5 17 10 14 6 -3 10 -2 10 2 0 10 -21 33 -30 33 -3 0
-11 -5 -18 -12z"/>
<path d="M1093 740 c2 -21 8 -25 40 -28 21 -2 45 2 53 9 16 13 19 39 4 39 -5
0 -10 -7 -10 -15 0 -23 -77 -21 -84 3 -3 10 -4 6 -3 -8z"/>
<path d="M1776 752 c-14 -23 14 -43 58 -40 36 3 41 6 43 28 1 14 0 18 -3 8 -4
-13 -16 -18 -44 -18 -29 0 -39 4 -42 18 -3 13 -5 14 -12 4z"/>
<path d="M930 585 c0 -18 17 -22 73 -17 32 3 47 9 47 18 0 11 -4 12 -19 5 -10
-6 -21 -8 -24 -5 -3 3 -21 7 -41 9 -25 2 -36 -1 -36 -10z"/>
<path d="M1066 591 c-6 -9 18 -34 25 -27 3 3 35 6 72 7 44 1 64 6 58 12 -10
10 -95 12 -111 2 -5 -3 -11 -1 -15 5 -8 12 -22 13 -29 1z"/>
<path d="M1240 583 c0 -8 4 -12 8 -9 4 2 14 1 21 -4 8 -4 27 -4 42 0 18 5 29
5 29 -1 0 -6 5 -7 11 -3 19 11 -4 21 -58 26 -41 4 -53 2 -53 -9z"/>
<path d="M1652 585 c2 -12 10 -19 21 -19 9 1 37 2 62 3 29 1 45 6 45 14 0 8
-18 12 -55 12 -30 0 -55 -4 -55 -10 0 -5 -5 -3 -11 5 -8 12 -10 11 -7 -5z"/>
<path d="M1790 590 c0 -12 11 -16 63 -24 27 -3 37 -1 37 9 0 17 -23 25 -40 15
-8 -5 -22 -4 -31 1 -23 12 -29 11 -29 -1z"/>
<path d="M1900 586 c0 -7 17 -13 41 -15 23 -1 46 -3 52 -4 5 -1 12 4 14 11 3
8 -7 12 -34 13 -21 0 -46 2 -55 4 -10 2 -18 -2 -18 -9z"/>
<path d="M950 440 c0 -5 20 -10 45 -10 25 0 45 5 45 10 0 6 -20 10 -45 10 -25
0 -45 -4 -45 -10z"/>
<path d="M1140 438 c0 -4 29 -8 65 -8 36 0 65 4 65 9 0 5 -29 9 -65 8 -36 0
-65 -5 -65 -9z"/>
<path d="M1640 440 c0 -5 20 -10 45 -10 25 0 45 4 45 8 0 5 -20 9 -45 11 -26
1 -45 -2 -45 -9z"/>
<path d="M1740 438 c0 -4 18 -8 40 -8 22 0 40 4 40 9 0 6 -18 9 -40 8 -22 -1
-40 -5 -40 -9z"/>
<path d="M1830 439 c0 -5 29 -9 65 -9 36 0 65 4 65 9 0 5 -29 9 -65 9 -36 0
-65 -4 -65 -9z"/>
<path d="M1350 215 l0 -35 135 0 135 0 0 35 0 35 -135 0 -135 0 0 -35z m210
-6 c0 -5 -11 -9 -25 -9 -14 0 -25 6 -25 14 0 9 8 12 25 8 14 -2 25 -8 25 -13z
m-60 1 c0 -5 -20 -10 -45 -10 -25 0 -45 5 -45 10 0 6 20 10 45 10 25 0 45 -4
45 -10z"/>
<path d="M57 199 c-24 -14 -22 -56 3 -64 25 -8 50 10 50 36 0 24 -30 40 -53
28z"/>
<path d="M2305 190 c9 -14 75 -17 75 -4 0 8 -15 13 -40 12 -22 0 -38 -4 -35
-8z"/>
<path d="M2390 190 c0 -6 18 -10 40 -10 22 0 40 4 40 8 0 5 -18 9 -40 10 -22
1 -40 -3 -40 -8z"/>
<path d="M2510 190 c0 -6 30 -10 73 -10 44 0 67 4 58 9 -19 12 -131 13 -131 1z"/>
</g>
</svg>
